<?xml version="1.0" encoding="UTF-8"?>
<svg id="_Слой_1" data-name="Слой 1" xmlns="http://www.w3.org/2000/svg" viewBox="0 0 25.34 24.88">
  <defs>
    <style>
      .cls-1 {
        stroke-width: 0px;
      }
    </style>
  </defs>
  <g id="instagram">
    <path class="cls-1" d="M19.13,1.91H6.21c-2.25,0-4.07,1.83-4.07,4.07v12.92c0,2.24,1.83,4.07,4.07,4.07h12.91c2.25,0,4.07-1.83,4.07-4.07V5.97c0-2.24-1.83-4.06-4.07-4.06ZM20.29,4.34h.47v3.57h-3.56s0-3.56,0-3.56h3.1ZM9.66,10.27c.67-.93,1.77-1.55,3-1.55s2.33.61,3,1.55c.44.61.7,1.36.7,2.16,0,2.04-1.66,3.71-3.71,3.71s-3.69-1.67-3.69-3.71c0-.81.26-1.55.7-2.16ZM21.14,18.89c0,1.11-.9,2.01-2.02,2.01H6.21c-1.11,0-2.02-.9-2.02-2.01v-8.62h3.14c-.27.67-.43,1.4-.43,2.16,0,3.17,2.58,5.76,5.76,5.76s5.76-2.58,5.76-5.76c0-.76-.16-1.5-.43-2.16h3.14v8.62Z"/>
  </g>
</svg>