<svg version="1.1" id="Слой_1" xmlns="http://www.w3.org/2000/svg" x="0px" y="0px"
     viewBox="0 0 25.3 24.9" style="enable-background:new 0 0 25.3 24.9;" xml:space="preserve">

	<g id="facebook" class="st0">
<path class="st0" d="M23.9,0.2H1.4c-0.4,0-0.7,0.1-1,0.4C0.1,0.8,0,1.2,0,1.5v22c0,0.4,0.1,0.7,0.4,1c0.3,0.3,0.6,0.4,1,0.4h12.1
	v-9.6h-3.3v-3.7h3.3V8.8c0-3.2,2-4.9,4.9-4.9c1.4,0,2.6,0.1,3,0.1v3.3l-2,0c-1.6,0-1.9,0.7-1.9,1.8v2.4h3.8l-0.5,3.7h-3.3v9.6h6.5
	c0.4,0,0.7-0.1,1-0.4c0.3-0.3,0.4-0.6,0.4-1v-22c0-0.4-0.1-0.7-0.4-1C24.7,0.3,24.3,0.2,23.9,0.2z"/></g>
    <g id="github" class="st0">
	<path class="st1" d="M12.7,2.4C6.9,2.4,2.2,7,2.2,12.7c0,4.5,3,8.4,7.2,9.7c0.5,0.1,0.7-0.2,0.7-0.5c0-0.2,0-1.1,0-1.9
		c-2.6,0.5-3.3-0.6-3.5-1.2c-0.1-0.3-0.6-1.2-1.1-1.4c-0.4-0.2-0.9-0.7,0-0.7c0.8,0,1.4,0.7,1.6,1.1c0.9,1.6,2.5,1.1,3.1,0.8
		c0.1-0.7,0.4-1.1,0.7-1.4C8.4,17,6,16.1,6,12.2c0-1.1,0.4-2,1.1-2.8C7,9.1,6.6,8.1,7.2,6.7c0,0,0.9-0.3,2.9,1.1
		c0.8-0.2,1.7-0.3,2.6-0.3c0.9,0,1.8,0.1,2.6,0.3c2-1.3,2.9-1.1,2.9-1.1c0.6,1.4,0.2,2.5,0.1,2.7c0.7,0.7,1.1,1.6,1.1,2.8
		c0,3.9-2.5,4.8-4.8,5.1c0.4,0.3,0.7,0.9,0.7,1.9c0,1.4,0,2.5,0,2.8c0,0.3,0.2,0.6,0.7,0.5c2.1-0.7,3.9-2,5.2-3.7c1.3-1.7,2-3.8,2-6
		C23.2,7,18.5,2.4,12.7,2.4z"/>
</g>
    <g id="instagram">
	<path d="M19.1,1.9H6.2C4,1.9,2.1,3.7,2.1,6v4.3v8.6C2.1,21.1,4,23,6.2,23h12.9c2.2,0,4.1-1.8,4.1-4.1v-8.6V6
		C23.2,3.7,21.4,1.9,19.1,1.9z M20.3,4.3h0.5v0.5v3.1l-3.6,0l0-3.6L20.3,4.3z M9.7,10.3c0.7-0.9,1.8-1.5,3-1.5c1.2,0,2.3,0.6,3,1.5
		c0.4,0.6,0.7,1.4,0.7,2.2c0,2-1.7,3.7-3.7,3.7c-2,0-3.7-1.7-3.7-3.7C9,11.6,9.2,10.9,9.7,10.3z M21.1,18.9c0,1.1-0.9,2-2,2H6.2
		c-1.1,0-2-0.9-2-2v-8.6h3.1c-0.3,0.7-0.4,1.4-0.4,2.2c0,3.2,2.6,5.8,5.8,5.8c3.2,0,5.8-2.6,5.8-5.8c0-0.8-0.2-1.5-0.4-2.2h3.1V18.9
		z"/>
</g>
    <g id="linkedin" class="st0">
	<path class="st1" d="M22.1,2.1H3.2c-0.9,0-1.6,0.7-1.6,1.5v17.7c0,0.8,0.7,1.5,1.6,1.5h18.9c0.9,0,1.6-0.7,1.6-1.5V3.6
		C23.8,2.8,23,2.1,22.1,2.1z M8.2,19.7H4.9V9.9h3.3V19.7z M6.5,8.5c-0.3,0-0.5,0-0.7-0.1C5.5,8.3,5.3,8.2,5.2,8
		C5,7.8,4.8,7.6,4.7,7.4C4.7,7.2,4.6,7,4.6,6.7c0-0.5,0.2-0.9,0.6-1.3C5.5,5.1,6,5,6.5,5s1,0.2,1.3,0.5c0.4,0.3,0.6,0.8,0.6,1.3
		c0,0.5-0.2,0.9-0.6,1.3C7.5,8.3,7,8.5,6.5,8.5z M20.5,19.7h-3.3v-4.8c0-1.1,0-2.6-1.7-2.6c-1.7,0-2,1.2-2,2.5v4.9h-3.3V9.9h3.2v1.3
		h0c0.4-0.8,1.5-1.6,3.1-1.6c3.3,0,3.9,2,3.9,4.7L20.5,19.7L20.5,19.7z"/>
</g>
    <g id="telegram" class="st0">
	<path class="st1" d="M23.3,5.1L20,20.3c-0.2,1.1-0.9,1.3-1.8,0.8l-4.9-3.6L11,19.8c-0.3,0.3-0.5,0.5-1,0.5l0.4-5l9.1-8.2
		c0.4-0.4-0.1-0.5-0.6-0.2L7.6,14l-4.8-1.5c-1.1-0.3-1.1-1.1,0.2-1.6l18.9-7.3C22.8,3.3,23.5,3.8,23.3,5.1z"/>
</g>
    <g id="twitter" class="st0">
	<path class="st1" d="M23.5,5.4c-0.8,0.4-1.7,0.6-2.5,0.7c0.9-0.6,1.6-1.5,2-2.6c-0.9,0.5-1.8,0.9-2.8,1.1c-0.4-0.5-0.9-0.8-1.5-1.1
		c-0.6-0.3-1.2-0.4-1.8-0.4c-2.4,0-4.4,2.1-4.4,4.7c0,0.4,0,0.7,0.1,1.1C8.8,8.7,5.6,6.9,3.4,4C3,4.8,2.8,5.6,2.8,6.4
		c0,0.8,0.2,1.5,0.5,2.2s0.8,1.3,1.4,1.7c-0.7,0-1.4-0.2-2-0.6c0,0,0,0,0,0.1c0,2.3,1.5,4.1,3.6,4.6c-0.7,0.2-1.3,0.2-2,0.1
		c0.6,1.9,2.2,3.2,4.1,3.2c-1.6,1.3-3.5,2-5.5,2c-0.4,0-0.7,0-1.1-0.1c2,1.4,4.4,2.1,6.8,2.1c8.2,0,12.6-7.1,12.6-13.3
		c0-0.2,0-0.4,0-0.6C22.1,7.1,22.9,6.3,23.5,5.4z"/>
</g>
</svg>
