<svg xmlns="http://www.w3.org/2000/svg">

    <g id="facebook">
        <!--    <svg width="50" height="50" viewBox="0 0 50 50" fill="none" xmlns="http://www.w3.org/2000/svg">-->
        <path d="M30.9117 0.300049H2.08829C1.614 0.300049 1.15914 0.488458 0.823769 0.82383C0.488397 1.1592 0.299988 1.61406 0.299988 2.08835V30.9122C0.300107 31.3864 0.48857 31.8412 0.823928 32.1764C1.15929 32.5117 1.61408 32.7001 2.08829 32.7001H17.6056V20.1532H13.3833V15.2634H17.6056V11.6571C17.6056 7.47215 20.1616 5.1938 23.8948 5.1938C25.6831 5.1938 27.2199 5.32655 27.6681 5.3864V9.75995L25.0788 9.7613C23.0484 9.7613 22.6555 10.7261 22.6555 12.1418V15.2639H27.4975L26.8671 20.1536H22.6555V32.7001H30.9121C31.3863 32.6999 31.8411 32.5115 32.1764 32.1761C32.5116 31.8407 32.7 31.386 32.7 30.9118V2.08835C32.7 1.61406 32.5116 1.1592 32.1762 0.82383C31.8408 0.488458 31.386 0.300049 30.9117 0.300049Z"/>
    </g>


    <g id="github">
        <path d="M10.5 0C4.69875 0 0 4.58819 0 10.2529C0 14.7899 3.00562 18.6219 7.17937 19.9804C7.70437 20.0701 7.90125 19.7625 7.90125 19.4934C7.90125 19.2499 7.88813 18.4425 7.88813 17.5838C5.25 18.058 4.5675 16.9558 4.3575 16.3791C4.23938 16.0843 3.7275 15.1743 3.28125 14.9308C2.91375 14.7386 2.38875 14.2644 3.26813 14.2516C4.095 14.2388 4.68563 14.9949 4.8825 15.3025C5.8275 16.8533 7.33688 16.4175 7.94063 16.1484C8.0325 15.4819 8.30812 15.0334 8.61 14.777C6.27375 14.5207 3.8325 13.6364 3.8325 9.71466C3.8325 8.59965 4.23938 7.67689 4.90875 6.95918C4.80375 6.70286 4.43625 5.65193 5.01375 4.24215C5.01375 4.24215 5.89313 3.97301 7.90125 5.29308C8.74125 5.06239 9.63375 4.94704 10.5263 4.94704C11.4188 4.94704 12.3113 5.06239 13.1513 5.29308C15.1594 3.9602 16.0387 4.24215 16.0387 4.24215C16.6163 5.65193 16.2488 6.70286 16.1438 6.95918C16.8131 7.67689 17.22 8.58684 17.22 9.71466C17.22 13.6492 14.7656 14.5207 12.4294 14.777C12.81 15.0975 13.1381 15.7126 13.1381 16.6738C13.1381 18.0452 13.125 19.1474 13.125 19.4934C13.125 19.7625 13.3219 20.0829 13.8469 19.9804C15.9314 19.2935 17.7428 17.9854 19.026 16.2403C20.3092 14.4953 20.9996 12.4012 21 10.2529C21 4.58819 16.3013 0 10.5 0Z"/>
    </g>


    <g id="instagram">
        <path d="M15.6516 2.09998H5.34844C3.55687 2.09998 2.1 3.55628 2.1 5.34715V8.77799V15.6528C2.1 17.4437 3.55687 18.9 5.34844 18.9H15.6516C17.4431 18.9 18.9 17.4437 18.9 15.6528V8.77143V5.34058C18.8934 3.55628 17.4366 2.09998 15.6516 2.09998ZM16.5834 4.03516H16.9575V4.40251V6.88217L14.1159 6.88873L14.1094 4.04172L16.5834 4.03516ZM8.09812 8.77143C8.63625 8.03016 9.50906 7.53816 10.4934 7.53816C11.4778 7.53816 12.3506 8.0236 12.8887 8.77143C13.2431 9.25687 13.4466 9.85382 13.4466 10.4967C13.4466 12.1236 12.1209 13.4552 10.4869 13.4552C8.85281 13.4552 7.54031 12.1236 7.54031 10.4967C7.54031 9.85382 7.75031 9.25687 8.09812 8.77143ZM17.2594 15.6462C17.2594 16.5318 16.5375 17.2534 15.6516 17.2534H5.34844C4.4625 17.2534 3.74062 16.5318 3.74062 15.6462V8.77143H6.2475C6.03094 9.30279 5.90625 9.88662 5.90625 10.4967C5.90625 13.0288 7.96687 15.0887 10.5 15.0887C13.0331 15.0887 15.0937 13.0288 15.0937 10.4967C15.0937 9.88662 14.9691 9.30279 14.7525 8.77143H17.2594V15.6462Z"/>
    </g>

    <g id="linkedin">
        <path d="M30.3001 0.300049H2.69174C1.37144 0.300049 0.299988 1.3463 0.299988 2.63465V30.3623C0.299988 31.6525 1.37144 32.7001 2.69174 32.7001H30.3001C31.6213 32.7001 32.7 31.6525 32.7 30.3623V2.63465C32.7 1.3463 31.6213 0.300049 30.3001 0.300049ZM9.90929 27.9093H5.10149V12.4478H9.90929V27.9093ZM7.50539 10.3337C7.13944 10.3337 6.77708 10.2616 6.43901 10.1215C6.10094 9.9814 5.79379 9.77606 5.53511 9.51721C5.27642 9.25836 5.07128 8.95108 4.93141 8.61292C4.79153 8.27476 4.71965 7.91235 4.71989 7.5464C4.71989 6.8077 5.01334 6.09925 5.53568 5.57691C6.05802 5.05457 6.76646 4.76112 7.50516 4.76112C8.24386 4.76112 8.95231 5.05457 9.47465 5.57691C9.99699 6.09925 10.2904 6.8077 10.2904 7.5464C10.2904 8.28525 9.99709 8.99387 9.47485 9.51652C8.95262 10.0392 8.24424 10.3331 7.50539 10.3337ZM27.9075 27.9093H23.1073V20.3907C23.1073 18.597 23.0722 16.2908 20.6094 16.2908C18.1083 16.2908 17.7271 18.2442 17.7271 20.2607V27.9098H12.9234V12.4478H17.5336V14.5592H17.5993C18.241 13.3442 19.8088 12.0621 22.147 12.0621C27.0097 12.0621 27.9079 15.2634 27.9079 19.4282V27.9093H27.9075Z"/>
    </g>

    <g id="telegram">
        <path d="M18.9057 4.76449L16.3705 16.7208C16.1791 17.5644 15.6804 17.7745 14.9717 17.3772L11.1085 14.5305L9.24472 16.3235C9.0383 16.5299 8.86608 16.7022 8.46824 16.7022L8.74607 12.7681L15.9054 6.29885C16.2169 6.02162 15.8376 5.86741 15.4218 6.14524L6.57084 11.7186L2.76043 10.5257C1.93174 10.2671 1.91674 9.69701 2.93325 9.29917L17.837 3.55716C18.5271 3.29854 19.1308 3.71018 18.9057 4.76449Z"/>
    </g>

    <g id="twitter">
        <path d="M34.825 3.75401C33.5276 4.32878 32.1513 4.70587 30.7421 4.87272C32.2265 3.9846 33.3372 2.58708 33.8674 0.940614C32.4722 1.76886 30.9455 2.35209 29.3534 2.66501C28.6883 1.95556 27.8845 1.39026 26.9919 1.00415C26.0994 0.618048 25.137 0.419364 24.1645 0.420414C20.2387 0.420414 17.0554 3.60281 17.0554 7.52951C17.0554 8.08616 17.1184 8.62932 17.2399 9.14997C11.3314 8.85342 6.09339 6.02292 2.587 1.72136C1.95478 2.80634 1.62257 4.03998 1.62444 5.29571C1.62351 6.46617 1.91172 7.61873 2.46345 8.65099C3.01518 9.68325 3.81335 10.5632 4.78704 11.2128C3.65831 11.1769 2.55445 10.8721 1.56729 10.3236C1.56639 10.3533 1.56639 10.3825 1.56639 10.4131C1.56639 13.8565 4.01664 16.7298 7.26834 17.3836C6.22131 17.6671 5.12351 17.7086 4.05804 17.5051C4.96254 20.3289 7.58784 22.3849 10.6987 22.4425C8.18046 24.4187 5.07078 25.4906 1.86969 25.4859C1.29594 25.4859 0.730295 25.4526 0.173645 25.3864C3.42414 27.4749 7.20721 28.5835 11.0708 28.5796C24.1469 28.5796 31.2974 17.7477 31.2974 8.35436C31.2974 8.04656 31.2902 7.73922 31.2767 7.43367C32.6693 6.42832 33.8709 5.18217 34.825 3.75401Z"/>
    </g>
</svg>
