<svg fill="none" xmlns="http://www.w3.org/2000/svg">

    <path id="outlined_moon"
          d="M12 21C7.02944 21 3 16.9706 3 12C3 7.19723 6.76201 3.27311 11.5 3.01367V3C11.1456 3.96621 11 4.91097 11 6.00002C11 10.9706 15.0294 15 20 15C20.2387 15 20.2539 15.0183 20.4879 15C19.2524 18.4956 15.9187 21 12 21Z"
          stroke="#383838" stroke-width="2" stroke-linecap="round" stroke-linejoin="round"/>

    <path id="outlined_sun"
          d="M12 5V3M12 21V19M7.05 7.05L5.636 5.636M18.364 18.364L16.95 16.95M5 12H3M21 12H19M7.05 16.95L5.636 18.364M18.364 5.636L16.95 7.05M16 12C16 14.2091 14.2091 16 12 16C9.79086 16 8 14.2091 8 12C8 9.79086 9.79086 8 12 8C14.2091 8 16 9.79086 16 12Z"
          stroke="#383838" stroke-width="2" stroke-linecap="round" stroke-linejoin="round"/>

    <path id="filled_moon" fill-rule="evenodd" clip-rule="evenodd"
          d="M11.6749 2.01538C11.5378 1.99103 11.4013 1.99594 11.2724 2.02609C6.08881 2.39923 2 6.72178 2 12C2 17.5228 6.47715 22 12 22C16.3556 22 20.0584 19.2159 21.4307 15.3332C21.5435 15.0142 21.4873 14.6598 21.2813 14.3913C21.0753 14.1228 20.7475 13.9767 20.4102 14.003C20.3302 14.0092 20.3055 14.0083 20.2832 14.0075L20.2819 14.0075L20.2544 14.0063L20.2544 14.0063C20.2053 14.004 20.1165 14 20 14C15.5817 14 12 10.4183 12 5.99999C12 5.04769 12.1211 4.24795 12.4037 3.44213C12.4655 3.31205 12.5 3.16669 12.5 3.01365V2.99997C12.5 2.51515 12.1522 2.10017 11.6749 2.01538Z"
    />
    
    <path id="filled_sun" fill-rule="evenodd" clip-rule="evenodd"
          d="M13 3C13 2.44772 12.5523 2 12 2C11.4477 2 11 2.44772 11 3V5C11 5.55228 11.4477 6 12 6C12.5523 6 13 5.55228 13 5V3ZM6.34311 4.92889C5.95258 4.53837 5.31942 4.53837 4.92889 4.92889C4.53837 5.31942 4.53837 5.95258 4.92889 6.34311L6.34289 7.75711C6.73342 8.14763 7.36658 8.14763 7.75711 7.75711C8.14763 7.36658 8.14763 6.73342 7.75711 6.34289L6.34311 4.92889ZM19.0711 6.34311C19.4616 5.95258 19.4616 5.31942 19.0711 4.92889C18.6806 4.53837 18.0474 4.53837 17.6569 4.92889L16.2429 6.34289C15.8524 6.73342 15.8524 7.36658 16.2429 7.75711C16.6334 8.14763 17.2666 8.14763 17.6571 7.75711L19.0711 6.34311ZM12 7C9.23858 7 7 9.23858 7 12C7 14.7614 9.23858 17 12 17C14.7614 17 17 14.7614 17 12C17 9.23858 14.7614 7 12 7ZM3 11C2.44772 11 2 11.4477 2 12C2 12.5523 2.44772 13 3 13H5C5.55228 13 6 12.5523 6 12C6 11.4477 5.55228 11 5 11H3ZM19 11C18.4477 11 18 11.4477 18 12C18 12.5523 18.4477 13 19 13H21C21.5523 13 22 12.5523 22 12C22 11.4477 21.5523 11 21 11H19ZM7.75711 17.6571C8.14763 17.2666 8.14763 16.6334 7.75711 16.2429C7.36658 15.8524 6.73342 15.8524 6.34289 16.2429L4.92889 17.6569C4.53837 18.0474 4.53837 18.6806 4.92889 19.0711C5.31942 19.4616 5.95258 19.4616 6.34311 19.0711L7.75711 17.6571ZM17.6571 16.2429C17.2666 15.8524 16.6334 15.8524 16.2429 16.2429C15.8524 16.6334 15.8524 17.2666 16.2429 17.6571L17.6569 19.0711C18.0474 19.4616 18.6806 19.4616 19.0711 19.0711C19.4616 18.6806 19.4616 18.0474 19.0711 17.6569L17.6571 16.2429ZM13 19C13 18.4477 12.5523 18 12 18C11.4477 18 11 18.4477 11 19V21C11 21.5523 11.4477 22 12 22C12.5523 22 13 21.5523 13 21V19Z"
    />

</svg>
